<svg width="120" height="40" viewBox="0 0 120 40" fill="none" xmlns="http://www.w3.org/2000/svg">
<rect x="0.5" y="0.5" width="119" height="39" rx="6.5" fill="black" stroke="#A6A6A6"/>
<path d="M35.7512 8.51099V14.5H37.9136C39.6982 14.5 40.7317 13.4001 40.7317 11.4868C40.7317 9.60254 39.6899 8.51099 37.9136 8.51099H35.7512ZM36.6809 9.35767H37.8098C39.0508 9.35767 39.7854 10.1462 39.7854 11.4993C39.7854 12.873 39.0632 13.6533 37.8098 13.6533H36.6809V9.35767Z" fill="white"/>
<path d="M43.8755 14.5872C45.1954 14.5872 46.0047 13.7031 46.0047 12.238C46.0047 10.7812 45.1912 9.89307 43.8755 9.89307C42.5557 9.89307 41.7422 10.7812 41.7422 12.238C41.7422 13.7031 42.5516 14.5872 43.8755 14.5872ZM43.8755 13.7944C43.0994 13.7944 42.6636 13.2258 42.6636 12.238C42.6636 11.2585 43.0994 10.6858 43.8755 10.6858C44.6475 10.6858 45.0874 11.2585 45.0874 12.238C45.0874 13.2217 44.6475 13.7944 43.8755 13.7944Z" fill="white"/>
<path d="M52.8756 9.98022H51.9832L51.1781 13.4292H51.1075L50.1778 9.98022H49.3228L48.3931 13.4292H48.3267L47.5174 9.98022H46.6126L47.8577 14.5H48.775L49.7047 11.1714H49.7752L50.7091 14.5H51.6346L52.8756 9.98022Z" fill="white"/>
<path d="M53.882 14.5H54.7743V11.8562C54.7743 11.1506 55.1935 10.7107 55.8534 10.7107C56.5133 10.7107 56.8287 11.0718 56.8287 11.7981V14.5H57.7211V11.574C57.7211 10.499 57.1649 9.89307 56.1564 9.89307C55.4757 9.89307 55.0275 10.196 54.8075 10.6982H54.7411V9.98022H53.882V14.5Z" fill="white"/>
<path d="M59.1051 14.5H59.9975V8.21631H59.1051V14.5Z" fill="white"/>
<path d="M63.3322 14.5872C64.6521 14.5872 65.4614 13.7031 65.4614 12.238C65.4614 10.7812 64.6479 9.89307 63.3322 9.89307C62.0124 9.89307 61.1989 10.7812 61.1989 12.238C61.1989 13.7031 62.0083 14.5872 63.3322 14.5872ZM63.3322 13.7944C62.5561 13.7944 62.1203 13.2258 62.1203 12.238C62.1203 11.2585 62.5561 10.6858 63.3322 10.6858C64.1042 10.6858 64.5441 11.2585 64.5441 12.238C64.5441 13.2217 64.1042 13.7944 63.3322 13.7944Z" fill="white"/>
<path d="M68.0989 13.8235C67.6133 13.8235 67.2605 13.5869 67.2605 13.1802C67.2605 12.7817 67.5427 12.5701 68.1653 12.5286L69.2693 12.458V12.8357C69.2693 13.396 68.7712 13.8235 68.0989 13.8235ZM67.8706 14.5747C68.4641 14.5747 68.958 14.3174 69.2278 13.865H69.2983V14.5H70.1575V11.4121C70.1575 10.4575 69.5183 9.89307 68.3852 9.89307C67.3601 9.89307 66.6296 10.3911 66.5383 11.1672H67.4016C67.5012 10.8477 67.8457 10.665 68.3437 10.665C68.9538 10.665 69.2693 10.9348 69.2693 11.4121V11.8022L68.0449 11.8728C66.97 11.9392 66.364 12.4082 66.364 13.2217C66.364 14.0476 66.999 14.5747 67.8706 14.5747Z" fill="white"/>
<path d="M73.1643 14.5747C73.7869 14.5747 74.314 14.28 74.5838 13.7861H74.6543V14.5H75.5093V8.21631H74.617V10.6982H74.5506C74.3057 10.2002 73.7827 9.90552 73.1643 9.90552C72.023 9.90552 71.2884 10.8103 71.2884 12.238C71.2884 13.6699 72.0147 14.5747 73.1643 14.5747ZM73.4175 10.7065C74.1646 10.7065 74.6336 11.3 74.6336 12.2422C74.6336 13.1885 74.1687 13.7737 73.4175 13.7737C72.6621 13.7737 72.2097 13.1968 72.2097 12.238C72.2097 11.2876 72.6663 10.7065 73.4175 10.7065Z" fill="white"/>
<path d="M81.2533 14.5872C82.5731 14.5872 83.3824 13.7031 83.3824 12.238C83.3824 10.7812 82.569 9.89307 81.2533 9.89307C79.9335 9.89307 79.12 10.7812 79.12 12.238C79.12 13.7031 79.9293 14.5872 81.2533 14.5872ZM81.2533 13.7944C80.4772 13.7944 80.0414 13.2258 80.0414 12.238C80.0414 11.2585 80.4772 10.6858 81.2533 10.6858C82.0253 10.6858 82.4652 11.2585 82.4652 12.238C82.4652 13.2217 82.0253 13.7944 81.2533 13.7944Z" fill="white"/>
<path d="M84.5424 14.5H85.4347V11.8562C85.4347 11.1506 85.8539 10.7107 86.5138 10.7107C87.1737 10.7107 87.4892 11.0718 87.4892 11.7981V14.5H88.3815V11.574C88.3815 10.499 87.8253 9.89307 86.8168 9.89307C86.1361 9.89307 85.6879 10.196 85.4679 10.6982H85.4015V9.98022H84.5424V14.5Z" fill="white"/>
<path d="M92.4487 8.85547V10.001H91.7307V10.7522H92.4487V13.3047C92.4487 14.1763 92.843 14.5249 93.8349 14.5249C94.0093 14.5249 94.1753 14.5042 94.3205 14.4792V13.7363C94.196 13.7488 94.1172 13.7571 93.9802 13.7571C93.5361 13.7571 93.341 13.5496 93.341 13.0764V10.7522H94.3205V10.001H93.341V8.85547H92.4487Z" fill="white"/>
<path d="M95.4971 14.5H96.3894V11.8604C96.3894 11.1755 96.7962 10.7148 97.5266 10.7148C98.1575 10.7148 98.4937 11.0801 98.4937 11.8022V14.5H99.386V11.5823C99.386 10.5073 98.7925 9.89722 97.8296 9.89722C97.1489 9.89722 96.6716 10.2002 96.4517 10.7065H96.3811V8.21631H95.4971V14.5Z" fill="white"/>
<path d="M102.584 10.6526C103.244 10.6526 103.675 11.1133 103.696 11.823H101.413C101.463 11.1174 101.924 10.6526 102.584 10.6526ZM103.692 13.2798C103.526 13.6326 103.157 13.8276 102.617 13.8276C101.903 13.8276 101.442 13.3254 101.413 12.5327V12.4829H104.605V12.1716C104.605 10.7522 103.846 9.89307 102.588 9.89307C101.314 9.89307 100.504 10.8103 100.504 12.2546C100.504 13.699 101.297 14.5872 102.592 14.5872C103.626 14.5872 104.348 14.0891 104.551 13.2798H103.692Z" fill="white"/>
<path d="M43.1687 30.3H45.1938L40.7419 17.9697H38.6741L34.2222 30.3H36.2131L37.3411 26.9675H42.0408L43.1687 30.3ZM39.6653 20.0204H39.7166L41.5537 25.4294H37.8281L39.6653 20.0204Z" fill="white"/>
<path d="M51.0622 20.9262C49.7719 20.9262 48.6269 21.5585 48.1056 22.5583H48.0629V21.0202H46.277V33.3762H48.1313V28.779H48.1654C48.7208 29.8044 49.7719 30.394 51.1049 30.394C53.4376 30.394 54.9843 28.5312 54.9843 25.6601C54.9843 22.7805 53.4291 20.9262 51.0622 20.9262ZM50.5922 28.8217C49.1139 28.8217 48.1227 27.5571 48.1142 25.6601C48.1227 23.7717 49.1225 22.4985 50.5922 22.4985C52.0961 22.4985 53.0873 23.746 53.0873 25.6601C53.0873 27.5827 52.0961 28.8217 50.5922 28.8217Z" fill="white"/>
<path d="M61.1602 20.9262C59.8699 20.9262 58.7249 21.5585 58.2037 22.5583H58.1609V21.0202H56.375V33.3762H58.2293V28.779H58.2635C58.8189 29.8044 59.8699 30.394 61.2029 30.394C63.5357 30.394 65.0823 28.5312 65.0823 25.6601C65.0823 22.7805 63.5271 20.9262 61.1602 20.9262ZM60.6902 28.8217C59.212 28.8217 58.2208 27.5571 58.2122 25.6601C58.2208 23.7717 59.2205 22.4985 60.6902 22.4985C62.1941 22.4985 63.1854 23.746 63.1854 25.6601C63.1854 27.5827 62.1941 28.8217 60.6902 28.8217Z" fill="white"/>
<path d="M70.0599 26.8649C70.1795 29.0952 72.0252 30.5051 74.7596 30.5051C77.682 30.5051 79.5191 29.061 79.5191 26.7538C79.5191 24.9509 78.4681 23.934 75.9388 23.3359L74.5802 23.0026C72.9908 22.6096 72.3414 22.0969 72.3414 21.2253C72.3414 20.1315 73.3583 19.3796 74.8451 19.3796C76.3319 19.3796 77.3487 20.123 77.4598 21.3535H79.3226C79.2628 19.2258 77.4769 17.7646 74.8707 17.7646C72.2389 17.7646 70.3846 19.2258 70.3846 21.3535C70.3846 23.071 71.4356 24.1306 73.7001 24.6774L75.298 25.062C76.8959 25.455 77.5709 26.0275 77.5709 26.9846C77.5709 28.0869 76.4515 28.8901 74.8963 28.8901C73.2728 28.8901 72.0851 28.0869 71.9483 26.8649H70.0599Z" fill="white"/>
<path d="M81.5166 18.9352V21.0202H80.2349V22.4814H81.5166V27.8561C81.5166 29.6506 82.2344 30.3598 84.0886 30.3598C84.4902 30.3598 84.926 30.3171 85.1311 30.2658V28.8046C85.0115 28.8217 84.6953 28.8474 84.4988 28.8474C83.7212 28.8474 83.3623 28.4714 83.3623 27.6682V22.4814H85.1396V21.0202H83.3623V18.9352H81.5166Z" fill="white"/>
<path d="M90.3671 30.4111C93.0502 30.4111 94.7506 28.5825 94.7506 25.6601C94.7506 22.7377 93.0416 20.9006 90.3671 20.9006C87.6925 20.9006 85.975 22.7463 85.975 25.6601C85.975 28.5825 87.684 30.4111 90.3671 30.4111ZM90.3671 28.873C88.7948 28.873 87.8549 27.6852 87.8549 25.6601C87.8549 23.6435 88.7948 22.4387 90.3671 22.4387C91.9394 22.4387 92.8708 23.6349 92.8708 25.6601C92.8708 27.6852 91.9394 28.873 90.3671 28.873Z" fill="white"/>
<path d="M96.15 30.3H98.0042V24.7629C98.0042 23.4555 98.7732 22.6096 99.9952 22.6096C100.363 22.6096 100.687 22.6608 100.841 22.7206V20.986C100.696 20.9518 100.465 20.9262 100.192 20.9262C99.0979 20.9262 98.2435 21.55 97.9529 22.5839H97.9188V21.0202H96.15V30.3Z" fill="white"/>
<path d="M105.411 22.413C106.761 22.413 107.675 23.3701 107.718 24.8141H103.009C103.112 23.3871 104.078 22.413 105.411 22.413ZM107.709 27.5827C107.453 28.3945 106.607 28.9072 105.53 28.9072C104.009 28.9072 103.001 27.8476 103.001 26.2411V26.1301H109.572V25.4807C109.572 22.6694 107.966 20.9006 105.419 20.9006C102.821 20.9006 101.13 22.789 101.13 25.6943C101.13 28.5995 102.804 30.4111 105.496 30.4111C107.581 30.4111 109.213 29.249 109.478 27.5827H107.709Z" fill="white"/>
<path d="M24.7973 19.5804C24.8081 18.7457 25.0298 17.9274 25.4418 17.2014C25.8538 16.4755 26.4428 15.8655 27.1539 15.4284C26.7021 14.7832 26.1062 14.2522 25.4134 13.8777C24.7205 13.5031 23.9499 13.2953 23.1627 13.2707C21.4835 13.0944 19.8555 14.2755 18.9998 14.2755C18.1275 14.2755 16.81 13.2882 15.3913 13.3174C14.4736 13.347 13.5793 13.6139 12.7954 14.0919C12.0115 14.57 11.3649 15.2429 10.9184 16.0452C8.98439 19.3936 10.427 24.3147 12.2796 27.0213C13.2065 28.3467 14.2898 29.8271 15.7072 29.7746C17.0943 29.7171 17.6123 28.8901 19.2866 28.8901C20.9454 28.8901 21.4314 29.7746 22.8776 29.7412C24.366 29.7171 25.3038 28.41 26.1981 27.0721C26.8641 26.1277 27.3766 25.084 27.7166 23.9796C26.8518 23.6139 26.1139 23.0017 25.5948 22.2194C25.0757 21.4371 24.7983 20.5193 24.7973 19.5804Z" fill="white"/>
<path d="M22.0657 11.4906C22.8772 10.5164 23.277 9.26423 23.1802 8C21.9404 8.13022 20.7951 8.72278 19.9726 9.65961C19.5705 10.1173 19.2625 10.6497 19.0662 11.2265C18.87 11.8033 18.7893 12.413 18.8289 13.021C19.4491 13.0274 20.0626 12.893 20.6232 12.6279C21.1839 12.3628 21.6771 11.9739 22.0657 11.4906Z" fill="white"/>
</svg>
